<svg version="1.1" viewBox="0.0 0.0 24.0 24.0" fill="none" stroke="none" stroke-linecap="square" stroke-miterlimit="10" xmlns:xlink="http://www.w3.org/1999/xlink" xmlns="http://www.w3.org/2000/svg">
    <clipPath id="p.0">
        <path d="m0 0l24.0 0l0 24.0l-24.0 0l0 -24.0z" clip-rule="nonzero"/>
    </clipPath>
    <g clip-path="url(#p.0)">
        <path fill="#000000" fill-opacity="0.0" d="m0 0l24.0 0l0 24.0l-24.0 0z" fill-rule="evenodd"/>
        <path fill="#000000" d="m0 4.00008l0 0c0 -2.2091832 1.7908968 -4.00008 4.00008 -4.00008l15.99984 0l0 0c1.0608864 0 2.0783234 0.4214358 2.8284836 1.1715963c0.7501602 0.7501606 1.1715965 1.7675965 1.1715965 2.8284838l0 15.99984c0 2.2091827 -1.7908974 4.00008 -4.00008 4.00008l-15.99984 0c-2.2091832 0 -4.00008 -1.7908974 -4.00008 -4.00008z" fill-rule="evenodd"/>
        <path fill="#ffffff" d="m11.300074 16.39221l0 -7.968503l-7.9685035 7.968503z" fill-rule="evenodd"/>
        <path fill="#ffffff" d="m12.697292 16.39221l0 -7.968503l7.968504 7.968503z" fill-rule="evenodd"/>
        <path fill="#ffffff" d="m2.8184254 7.362923l3.9370081 3.9842515l-3.9370081 3.984252z" fill-rule="evenodd"/>
        <path fill="#ffffff" d="m21.181347 7.3575068l-3.937008 3.984252l3.937008 3.984252z" fill-rule="evenodd"/>
    </g>
</svg>