<svg version="1.1" viewBox="0.0 0.0 24.0 13.0" fill="none" stroke="none" stroke-linecap="square" stroke-miterlimit="10" xmlns:xlink="http://www.w3.org/1999/xlink" xmlns="http://www.w3.org/2000/svg">
    <clipPath id="p.0">
        <path d="m0 0l24.0 0l0 13.0l-24.0 0l0 -13.0z" clip-rule="nonzero"/>
    </clipPath>
    <g clip-path="url(#p.0)"><path fill="#000000" fill-opacity="0.0" d="m0 0l24.0 0l0 13.0l-24.0 0z" fill-rule="evenodd"/>
        <path fill="#ffffff" d="m0.5622367 12.125l0 -11.464567l11.464567 11.464567z" fill-rule="evenodd"/>
        <path stroke="#b7b7b7" stroke-width="1.0" stroke-linejoin="round" stroke-linecap="butt" d="m0.5622367 12.125l0 -11.464567l11.464567 11.464567z" fill-rule="evenodd"/>
        <path fill="#ffffff" d="m23.437757 12.125l0 -11.464567l-11.464567 11.464567z" fill-rule="evenodd"/>
        <path stroke="#b7b7b7" stroke-width="1.0" stroke-linejoin="round" stroke-linecap="butt" d="m23.437757 12.125l0 -11.464567l-11.464567 11.464567z" fill-rule="evenodd"/>
        <path fill="#ffffff" d="m12.015044 12.125l0 -11.464567l-11.464566 11.464567z" fill-rule="evenodd"/>
        <path stroke="#b7b7b7" stroke-width="1.0" stroke-linejoin="round" stroke-linecap="butt" d="m12.015044 12.125l0 -11.464567l-11.464566 11.464567z" fill-rule="evenodd"/>
        <path fill="#ffffff" d="m11.984949 12.125l0 -11.464567l11.464567 11.464567z" fill-rule="evenodd"/>
        <path stroke="#b7b7b7" stroke-width="1.0" stroke-linejoin="round" stroke-linecap="butt" d="m11.984949 12.125l0 -11.464567l11.464567 11.464567z" fill-rule="evenodd"/>
    </g>
</svg>