<?xml version="1.0" standalone="no"?>
<!DOCTYPE svg PUBLIC "-//W3C//DTD SVG 20010904//EN"
 "http://www.w3.org/TR/2001/REC-SVG-20010904/DTD/svg10.dtd">
<svg version="1.0" xmlns="http://www.w3.org/2000/svg"
 width="700.000000pt" height="700.000000pt" viewBox="0 0 700.000000 700.000000"
 preserveAspectRatio="xMidYMid meet">
<metadata>
Created by potrace 1.11, written by Peter Selinger 2001-2013
</metadata>
<g transform="translate(0.000000,700.000000) scale(0.100000,-0.100000)"
fill="#000000" stroke="none">
<path d="M960 6980 c-243 -46 -444 -151 -616 -324 -181 -181 -294 -404 -332
-656 -9 -58 -9 -4941 0 -5000 37 -250 151 -475 333 -657 156 -155 329 -254
540 -307 33 -8 74 -18 90 -23 17 -4 1142 -8 2500 -9 2490 -2 2479 -2 2635 29
43 9 152 48 220 79 230 107 445 322 558 558 47 98 79 205 100 325 4 22 7 1154
7 2515 0 2384 -1 2478 -19 2555 -55 236 -147 411 -297 570 -176 185 -373 290
-659 352 -19 4 -1144 8 -2500 9 -2333 2 -2470 1 -2560 -16z"/>
</g>
</svg>
